<svg width="1424" height="825" viewBox="0 0 1424 825" fill="none" xmlns="http://www.w3.org/2000/svg">
<rect width="1424" height="825" fill="#1E1E1E"/>
<g clip-path="url(#clip0_0_1)">
<rect width="1424" height="825" fill="#1F201F"/>
<path d="M-8.6 783L81.4 491H189.4L279.4 783H191.4L135.8 559H135L79.4 783H-8.6ZM57.4 729V663H213.4V729H57.4ZM309.969 492.6C321.435 491.533 333.302 490.6 345.569 489.8C358.102 489 370.102 488.333 381.569 487.8C393.035 487.267 402.769 487 410.769 487C455.835 487 488.902 495 509.969 511C531.302 526.733 541.969 551.267 541.969 584.6C541.969 617.933 531.302 642.6 509.969 658.6C488.902 674.333 455.835 682.2 410.769 682.2C401.969 682.2 391.969 681.933 380.769 681.4C369.835 680.867 359.835 680.333 350.769 679.8L353.969 618.2C363.835 619.8 374.635 621.133 386.369 622.2C398.102 623.267 407.569 623.8 414.769 623.8C430.502 623.8 441.969 620.867 449.169 615C456.369 609.133 459.969 599.933 459.969 587.4C459.969 574.867 456.369 565.667 449.169 559.8C441.969 553.933 430.502 551 414.769 551C407.569 551 398.102 551.533 386.369 552.6C374.635 553.667 363.835 555 353.969 556.6L389.969 519V783H309.969V492.6ZM470.769 783L367.169 652.2H454.369L561.969 783H470.769ZM599.516 783V491H679.516L766.716 647H767.516V491H847.516V783H767.516L680.316 627H679.516V783H599.516ZM878.009 783L968.009 491H1076.01L1166.01 783H1078.01L1022.41 559H1021.61L966.009 783H878.009ZM944.009 729V663H1100.01V729H944.009ZM1296.58 787C1285.11 787 1270.31 786.467 1252.18 785.4C1234.04 784.6 1215.51 783.267 1196.58 781.4V492.6C1206.98 491.533 1217.91 490.6 1229.38 489.8C1240.84 489 1252.04 488.333 1262.98 487.8C1273.91 487.267 1283.78 487 1292.58 487C1336.04 487 1368.84 493.4 1390.98 506.2C1413.38 519 1424.58 537.933 1424.58 563C1424.58 580.6 1419.24 595.267 1408.58 607C1398.18 618.467 1383.51 625.667 1364.58 628.6V629.4C1386.98 632.067 1403.91 639.4 1415.38 651.4C1426.84 663.133 1432.58 679 1432.58 699C1432.58 727.533 1420.98 749.4 1397.78 764.6C1374.58 779.533 1340.84 787 1296.58 787ZM1254.18 721.8C1261.11 722.867 1269.11 723.667 1278.18 724.2C1287.24 724.733 1294.71 725 1300.58 725C1317.64 725 1330.18 722.333 1338.18 717C1346.44 711.667 1350.58 703.533 1350.58 692.6C1350.58 682.2 1346.58 674.733 1338.58 670.2C1330.84 665.4 1318.18 663 1300.58 663H1236.58V603H1300.58C1317.11 603 1328.58 601.133 1334.98 597.4C1341.38 593.667 1344.58 587 1344.58 577.4C1344.58 567.267 1341.11 560.067 1334.18 555.8C1327.51 551.267 1316.31 549 1300.58 549C1296.58 549 1292.04 549.133 1286.98 549.4C1281.91 549.667 1276.58 550.067 1270.98 550.6C1265.38 550.867 1259.78 551.4 1254.18 552.2L1276.58 514.6V759.4L1254.18 721.8Z" fill="#DADADA" fill-opacity="0.02"/>
<path d="M1.8 482V412H22.2C30.3333 412 36.7333 413.8 41.4 417.4C46.0667 420.933 48.4 425.8 48.4 432C48.4 438.2 46.1 443.1 41.5 446.7C36.9667 450.233 30.7333 452 22.8 452H7.8V482H1.8ZM21.7 450C28.1667 450 33.2333 448.567 36.9 445.7C40.5667 442.767 42.4 438.767 42.4 433.7C42.4 428.633 40.5667 424.667 36.9 421.8C33.2333 418.867 28.1667 417.4 21.7 417.4H7.8V450H21.7ZM82.4117 483C77.5451 483 73.0784 481.867 69.0117 479.6C65.0117 477.267 61.8451 474.133 59.5117 470.2C57.1784 466.2 56.0117 461.8 56.0117 457C56.0117 452.133 57.1784 447.733 59.5117 443.8C61.8451 439.867 65.0117 436.767 69.0117 434.5C73.0784 432.167 77.5451 431 82.4117 431C87.3451 431 91.8117 432.167 95.8117 434.5C99.8117 436.767 102.978 439.9 105.312 443.9C107.645 447.833 108.812 452.2 108.812 457C108.812 461.8 107.645 466.2 105.312 470.2C102.978 474.133 99.8117 477.267 95.8117 479.6C91.8117 481.867 87.3451 483 82.4117 483ZM82.4117 477.9C86.2784 477.9 89.8117 477 93.0117 475.2C96.2117 473.333 98.7117 470.8 100.512 467.6C102.378 464.4 103.312 460.867 103.312 457C103.312 453.133 102.378 449.6 100.512 446.4C98.7117 443.2 96.2117 440.7 93.0117 438.9C89.8117 437.033 86.2784 436.1 82.4117 436.1C78.5451 436.1 75.0117 437.033 71.8117 438.9C68.6117 440.7 66.0784 443.2 64.2117 446.4C62.4117 449.6 61.5117 453.133 61.5117 457C61.5117 460.867 62.4117 464.4 64.2117 467.6C66.0784 470.8 68.6117 473.333 71.8117 475.2C75.0117 477 78.5451 477.9 82.4117 477.9ZM124.005 482V432H129.405V447.2C130.738 442.467 133.038 438.6 136.305 435.6C139.638 432.533 143.505 431 147.905 431C151.371 431 154.305 431.733 156.705 433.2C159.105 434.6 160.905 436.667 162.105 439.4C163.371 442.133 164.005 445.433 164.005 449.3V452.1H158.605V450.1C158.605 445.633 157.505 442.2 155.305 439.8C153.105 437.4 149.971 436.2 145.905 436.2C142.905 436.2 140.138 437.1 137.605 438.9C135.071 440.633 133.071 443.033 131.605 446.1C130.138 449.1 129.405 452.4 129.405 456V482H124.005ZM198.16 483C192.293 483 187.927 481.633 185.06 478.9C182.193 476.167 180.76 472.133 180.76 466.8V437H168.26V432H178.76C179.56 432 180.16 431.767 180.56 431.3C181.027 430.833 181.26 430.233 181.26 429.5V420H186.36L186.16 432H209.16V437H186.16V465.8C186.16 469.933 187.193 473 189.26 475C191.393 476.933 194.627 477.9 198.96 477.9C201.893 477.9 205.293 477.367 209.16 476.3V481.2C207.56 481.667 205.693 482.067 203.56 482.4C201.493 482.8 199.693 483 198.16 483ZM228.221 482V437H217.721V432H228.221V425.8C228.221 422.2 228.988 419.067 230.521 416.4C232.054 413.733 234.254 411.667 237.121 410.2C239.988 408.733 243.388 408 247.321 408C250.654 408 253.654 408.633 256.321 409.9C259.054 411.167 261.188 412.967 262.721 415.3C264.254 417.633 265.021 420.333 265.021 423.4H259.821V423.1C259.754 419.967 258.554 417.433 256.221 415.5C253.888 413.567 250.888 412.6 247.221 412.6C242.954 412.6 239.554 413.733 237.021 416C234.554 418.267 233.321 421.533 233.321 425.8C233.321 426.467 233.321 427.167 233.321 427.9C233.321 428.567 233.321 429.267 233.321 430C233.388 430.267 233.421 430.6 233.421 431C233.421 431.333 233.421 431.667 233.421 432H257.121V437H233.621V482H228.221ZM286.22 483C281.354 483 276.887 481.867 272.82 479.6C268.82 477.267 265.654 474.133 263.32 470.2C260.987 466.2 259.82 461.8 259.82 457C259.82 452.133 260.987 447.733 263.32 443.8C265.654 439.867 268.82 436.767 272.82 434.5C276.887 432.167 281.354 431 286.22 431C291.154 431 295.62 432.167 299.62 434.5C303.62 436.767 306.787 439.9 309.12 443.9C311.454 447.833 312.62 452.2 312.62 457C312.62 461.8 311.454 466.2 309.12 470.2C306.787 474.133 303.62 477.267 299.62 479.6C295.62 481.867 291.154 483 286.22 483ZM286.22 477.9C290.087 477.9 293.62 477 296.82 475.2C300.02 473.333 302.52 470.8 304.32 467.6C306.187 464.4 307.12 460.867 307.12 457C307.12 453.133 306.187 449.6 304.32 446.4C302.52 443.2 300.02 440.7 296.82 438.9C293.62 437.033 290.087 436.1 286.22 436.1C282.354 436.1 278.82 437.033 275.62 438.9C272.42 440.7 269.887 443.2 268.02 446.4C266.22 449.6 265.32 453.133 265.32 457C265.32 460.867 266.22 464.4 268.02 467.6C269.887 470.8 272.42 473.333 275.62 475.2C278.82 477 282.354 477.9 286.22 477.9ZM327.813 482V411H333.213V482H327.813ZM353.595 482V432H358.995V482H353.595ZM355.795 424.3L352.695 407.5H359.895L356.795 424.3H355.795ZM400.576 483C395.709 483 391.242 481.867 387.176 479.6C383.176 477.267 380.009 474.133 377.676 470.2C375.342 466.2 374.176 461.8 374.176 457C374.176 452.133 375.342 447.733 377.676 443.8C380.009 439.867 383.176 436.767 387.176 434.5C391.242 432.167 395.709 431 400.576 431C405.509 431 409.976 432.167 413.976 434.5C417.976 436.767 421.142 439.9 423.476 443.9C425.809 447.833 426.976 452.2 426.976 457C426.976 461.8 425.809 466.2 423.476 470.2C421.142 474.133 417.976 477.267 413.976 479.6C409.976 481.867 405.509 483 400.576 483ZM400.576 477.9C404.442 477.9 407.976 477 411.176 475.2C414.376 473.333 416.876 470.8 418.676 467.6C420.542 464.4 421.476 460.867 421.476 457C421.476 453.133 420.542 449.6 418.676 446.4C416.876 443.2 414.376 440.7 411.176 438.9C407.976 437.033 404.442 436.1 400.576 436.1C396.709 436.1 393.176 437.033 389.976 438.9C386.776 440.7 384.242 443.2 382.376 446.4C380.576 449.6 379.676 453.133 379.676 457C379.676 460.867 380.576 464.4 382.376 467.6C384.242 470.8 386.776 473.333 389.976 475.2C393.176 477 396.709 477.9 400.576 477.9Z" fill="white" fill-opacity="0.07"/>
<path d="M485.8 564C476.067 564 467.133 561.733 459 557.2C451 552.533 444.667 546.267 440 538.4C435.333 530.4 433 521.6 433 512C433 502.267 435.333 493.467 440 485.6C444.667 477.733 451 471.533 459 467C467.133 462.333 476.067 460 485.8 460C495.667 460 504.6 462.333 512.6 467C520.6 471.533 526.933 477.8 531.6 485.8C536.267 493.667 538.6 502.4 538.6 512C538.6 521.6 536.267 530.4 531.6 538.4C526.933 546.267 520.6 552.533 512.6 557.2C504.6 561.733 495.667 564 485.8 564ZM485.8 553.8C493.533 553.8 500.6 552 507 548.4C513.4 544.667 518.4 539.6 522 533.2C525.733 526.8 527.6 519.733 527.6 512C527.6 504.267 525.733 497.2 522 490.8C518.4 484.4 513.4 479.4 507 475.8C500.6 472.067 493.533 470.2 485.8 470.2C478.067 470.2 471 472.067 464.6 475.8C458.2 479.4 453.133 484.4 449.4 490.8C445.8 497.2 444 504.267 444 512C444 519.733 445.8 526.8 449.4 533.2C453.133 539.6 458.2 544.667 464.6 548.4C471 552 478.067 553.8 485.8 553.8ZM575.27 562V472H554.27V462H575.27V449.6C575.27 442.4 576.804 436.133 579.87 430.8C582.937 425.467 587.337 421.333 593.07 418.4C598.804 415.467 605.604 414 613.47 414C620.137 414 626.137 415.267 631.47 417.8C636.937 420.333 641.204 423.933 644.27 428.6C647.337 433.267 648.87 438.667 648.87 444.8H638.47V444.2C638.337 437.933 635.937 432.867 631.27 429C626.604 425.133 620.604 423.2 613.27 423.2C604.737 423.2 597.937 425.467 592.87 430C587.937 434.533 585.47 441.067 585.47 449.6C585.47 450.933 585.47 452.333 585.47 453.8C585.47 455.133 585.47 456.533 585.47 458C585.604 458.533 585.67 459.2 585.67 460C585.67 460.667 585.67 461.333 585.67 462H633.07V472H586.07V562H575.27Z" fill="white" fill-opacity="0.05"/>
</g>
<defs>
<clipPath id="clip0_0_1">
<rect width="1424" height="825" fill="white"/>
</clipPath>
</defs>
</svg>
